<svg width="215" height="74" viewBox="0 0 215 74" fill="none" xmlns="http://www.w3.org/2000/svg">
<path d="M49.7456 5.46628C43.2577 7.49178 37.3395 11.6272 33.0775 17.1762C28.7944 22.7146 26.2309 29.6667 25.9144 36.8615C25.5874 29.6773 27.5074 22.3032 31.4951 16.0685C35.4406 9.83376 41.401 4.74892 48.4164 1.83727H48.427C49.4081 1.42584 50.5474 1.89002 50.9483 2.87112C51.3597 3.85222 50.885 4.99156 49.9039 5.39244C49.8511 5.41354 49.7984 5.43463 49.7456 5.45573V5.46628Z" fill="#89D9F2"/>
<path d="M32.3285 3.23996C27.729 8.2404 24.6591 14.7811 23.7518 21.7226C22.8129 28.6536 24.0683 35.9644 27.3914 42.3468C23.5092 36.2914 21.4942 28.9384 21.8213 21.5538C22.1272 14.1797 24.7435 6.79512 29.3536 0.771387C30.0077 -0.0936683 31.2103 -0.251908 32.0648 0.402158C32.9088 1.05622 33.067 2.25886 32.4235 3.11337C32.3918 3.15556 32.3496 3.20831 32.3074 3.25051L32.3285 3.23996Z" fill="#89D9F2"/>
<path d="M16.114 10.0127C14.6265 16.6483 15.2384 23.843 17.9285 30.3098C20.5764 36.7872 25.3237 42.4839 31.4002 46.3555C25.0178 43.0536 19.5848 37.6944 16.1879 31.1327C12.7593 24.592 11.3351 16.8909 12.3268 9.36915V9.34805C12.4639 8.29311 13.4345 7.54409 14.5 7.68124C15.5549 7.81838 16.3039 8.78893 16.1668 9.84387C16.1668 9.89662 16.1457 9.95992 16.1351 10.0127H16.114Z" fill="#89D9F2"/>
<path d="M5.46956 23.9905C7.49505 30.4784 11.6304 36.3967 17.1795 40.6586C22.7179 44.9417 29.67 47.5052 36.8647 47.8217C29.6805 48.1488 22.3065 46.2288 16.0718 42.2411C9.83703 38.2956 4.7522 32.3351 1.84055 25.3197C1.42912 24.3175 1.90384 23.1887 2.88494 22.7773C3.86604 22.3659 5.00538 22.8406 5.40626 23.8217C5.42736 23.8745 5.44846 23.9272 5.46956 23.98V23.9905Z" fill="#99BB4A"/>
<path d="M3.23303 41.4077C8.23347 46.0073 14.7741 49.0772 21.7157 49.9844C28.6467 50.9233 35.9574 49.6679 42.3399 46.3448C36.2845 50.227 28.9315 52.242 21.5469 51.915C14.1728 51.609 6.7882 48.9928 0.764461 44.3826H0.753909C-0.0900472 43.7286 -0.248289 42.5154 0.395228 41.6609C1.04929 40.8169 2.25193 40.6587 3.10644 41.3022C3.14863 41.3339 3.20138 41.3761 3.24358 41.4183L3.23303 41.4077Z" fill="#99BB4A"/>
<path d="M10.0163 57.6226C16.6519 59.1101 23.8467 58.4982 30.3135 55.8081C36.7908 53.1602 42.4875 48.4129 46.3592 42.3364C43.0572 48.7188 37.6981 54.1518 31.1363 57.5487C24.5957 60.9773 16.8946 62.4015 9.37281 61.4098H9.35171C8.29677 61.2727 7.54776 60.3021 7.6849 59.2367C7.82204 58.1817 8.7926 57.4327 9.84754 57.5698C9.90029 57.5698 9.96358 57.5909 10.0163 57.6015V57.6226Z" fill="#99BB4A"/>
<path d="M23.9839 68.2665C30.4718 66.241 36.39 62.1056 40.652 56.5566C44.9351 51.0182 47.4986 44.0661 47.8151 36.8713C48.1421 44.0555 46.2221 51.4296 42.2344 57.6643C38.2889 63.899 32.3285 68.9839 25.3131 71.8955H25.3025C24.3214 72.3069 23.1821 71.8428 22.7812 70.8617C22.3698 69.8806 22.8445 68.7412 23.8256 68.3404C23.8784 68.3193 23.9311 68.2982 23.9839 68.2771V68.2665Z" fill="#0D3692"/>
<path d="M41.4116 70.5028C46.0111 65.5024 49.081 58.9617 49.9883 52.0202C50.9272 45.0892 49.6718 37.7784 46.3487 31.396C50.2309 37.4514 52.2458 44.8043 51.9188 52.189C51.6129 59.563 49.0072 66.9476 44.3865 72.9714C43.7324 73.8364 42.5298 73.9947 41.6753 73.3406C40.8313 72.6865 40.6731 71.4839 41.3166 70.6294C41.3483 70.5872 41.3905 70.5345 41.4327 70.4923L41.4116 70.5028Z" fill="#0D3692"/>
<path d="M57.6155 63.7201C59.103 57.0845 58.4911 49.8897 55.801 43.4229C53.1531 36.9456 48.4058 31.2488 42.3293 27.3772C48.7118 30.6792 54.1447 36.0383 57.5417 42.6001C60.9702 49.1407 62.3944 56.8418 61.4028 64.3636V64.3847C61.2656 65.4396 60.2951 66.1886 59.2296 66.0515C58.1746 65.9144 57.4256 64.9438 57.5628 63.8889C57.5628 63.8361 57.5839 63.7728 57.5944 63.7201H57.6155Z" fill="#0D3692"/>
<path d="M68.2702 49.7525C66.2447 43.2646 62.1093 37.3463 56.5603 33.0843C51.0218 28.8013 44.0697 26.2377 36.875 25.9213C44.0592 25.5942 51.4332 27.5142 57.668 31.5019C63.9027 35.4474 68.9875 41.4079 71.8992 48.4232C72.3106 49.4254 71.8359 50.5542 70.8548 50.9657C69.8737 51.3771 68.7343 50.9024 68.3335 49.9213C68.3124 49.8685 68.2913 49.8158 68.2702 49.763V49.7525Z" fill="#503EB7"/>
<path d="M70.4962 32.3254C65.4958 27.7258 58.9551 24.6559 52.0136 23.7487C45.0826 22.8098 37.7718 24.0651 31.3894 27.3882C37.4448 23.506 44.7978 21.4911 52.1824 21.8181C59.5564 22.124 66.9411 24.7298 72.9648 29.3504H72.9753C73.8193 30.0045 73.9775 31.2177 73.334 32.0722C72.68 32.9161 71.4773 33.0744 70.6228 32.4309C70.5806 32.3992 70.5279 32.357 70.4857 32.3148L70.4962 32.3254Z" fill="#503EB7"/>
<path d="M63.7235 16.1211C57.0879 14.6336 49.8931 15.2455 43.4263 17.9356C36.949 20.5835 31.2523 25.3308 27.3806 31.4073C30.6826 25.0248 36.0417 19.5919 42.6035 16.1949C49.1441 12.7664 56.8452 11.3422 64.367 12.3338H64.3881C65.443 12.471 66.1921 13.4415 66.0549 14.507C65.9178 15.562 64.9472 16.311 63.8923 16.1738C63.8395 16.1738 63.7762 16.1528 63.7235 16.1422V16.1211Z" fill="#503EB7"/>
<path d="M120.11 51.8942C120.11 52.7593 120.226 53.3817 120.448 53.7615C120.669 54.1412 121.123 54.3206 121.788 54.3206H122.537C122.821 54.3206 123.159 54.2784 123.528 54.194V59.0995C123.286 59.1839 122.959 59.2788 122.568 59.3738C122.178 59.4793 121.766 59.5742 121.355 59.6586C120.944 59.743 120.522 59.8063 120.11 59.8485C119.699 59.8907 119.34 59.9118 119.055 59.9118C117.61 59.9118 116.407 59.6164 115.458 59.0467C114.508 58.4665 113.886 57.4538 113.591 56.0085C112.188 57.3799 110.457 58.3716 108.4 58.994C106.354 59.6164 104.37 59.9223 102.472 59.9223C101.026 59.9223 99.6337 59.7219 98.3151 59.3316C96.9858 58.9412 95.8148 58.361 94.8021 57.5909C93.7893 56.8208 92.977 55.8503 92.3757 54.6687C91.7744 53.4872 91.479 52.1157 91.479 50.5439C91.479 48.5606 91.8377 46.936 92.5656 45.7017C93.2935 44.4568 94.243 43.4863 95.4245 42.7795C96.606 42.0727 97.9247 41.5663 99.4017 41.2604C100.868 40.9544 102.355 40.7118 103.843 40.543C105.13 40.2898 106.343 40.121 107.504 40.0155C108.664 39.91 109.687 39.7307 110.574 39.4881C111.46 39.2454 112.166 38.8551 112.683 38.3382C113.2 37.8212 113.464 37.0406 113.464 36.0067C113.464 35.0995 113.243 34.3505 112.81 33.7702C112.377 33.19 111.839 32.7469 111.196 32.4305C110.552 32.1245 109.835 31.9135 109.054 31.8081C108.263 31.7026 107.525 31.6498 106.818 31.6498C104.835 31.6498 103.189 32.0612 101.912 32.8946C100.625 33.7281 99.908 35.0045 99.7392 36.7452H92.6606C92.7871 34.6775 93.283 32.9579 94.148 31.5865C95.0131 30.2151 96.1208 29.1285 97.4711 28.2951C98.8214 27.4722 100.341 26.892 102.039 26.5544C103.737 26.2274 105.478 26.0586 107.261 26.0586C108.833 26.0586 110.384 26.2274 111.924 26.5544C113.454 26.8815 114.835 27.4195 116.059 28.1685C117.283 28.9175 118.264 29.8775 119.013 31.059C119.762 32.2406 120.131 33.6753 120.131 35.3738V51.8942H120.11ZM113.032 42.9483C111.956 43.6551 110.626 44.0771 109.054 44.2248C107.483 44.3724 105.911 44.5834 104.339 44.8788C103.59 45.0054 102.872 45.1742 102.166 45.4063C101.459 45.6384 100.836 45.9443 100.298 46.3346C99.7603 46.725 99.3384 47.2419 99.0219 47.8854C98.7159 48.5289 98.5577 49.299 98.5577 50.2168C98.5577 51.0081 98.7792 51.6621 99.2434 52.2001C99.697 52.7382 100.246 53.1601 100.889 53.4766C101.533 53.7826 102.229 54.0041 102.999 54.1307C103.769 54.2573 104.455 54.3206 105.077 54.3206C105.868 54.3206 106.712 54.2151 107.62 54.0146C108.527 53.8037 109.392 53.4555 110.194 52.9597C111.006 52.4639 111.671 51.8309 112.209 51.0608C112.747 50.2907 113.021 49.3518 113.021 48.2335V42.9588L113.032 42.9483Z" fill="#0D3692"/>
<path d="M127.748 14.6968H134.827V31.1539H134.953C135.818 29.7086 137.116 28.4955 138.836 27.5249C140.555 26.5544 142.465 26.0691 144.585 26.0691C148.108 26.0691 150.883 26.9763 152.908 28.8014C154.934 30.6265 155.947 33.3588 155.947 36.9983V59.0467H148.868V38.8656C148.784 36.3442 148.246 34.5086 147.254 33.3693C146.262 32.23 144.712 31.6603 142.591 31.6603C141.388 31.6603 140.312 31.8818 139.363 32.3144C138.414 32.7469 137.601 33.3482 136.937 34.1183C136.272 34.8884 135.755 35.7851 135.386 36.819C135.017 37.8528 134.827 38.95 134.827 40.1104V59.0572H127.748V14.6968Z" fill="#0D3692"/>
<path d="M185.074 37.6737C184.789 35.6904 183.987 34.1819 182.679 33.1691C181.371 32.1564 179.725 31.65 177.742 31.65C176.835 31.65 175.854 31.8082 174.82 32.1142C173.786 32.4201 172.837 33.0003 171.961 33.8548C171.096 34.6988 170.368 35.8803 169.788 37.3994C169.208 38.908 168.923 40.8913 168.923 43.3282C168.923 44.6575 169.081 45.9762 169.387 47.3054C169.693 48.6346 170.199 49.8162 170.874 50.85C171.56 51.8838 172.436 52.7278 173.512 53.3608C174.588 54.0043 175.896 54.3208 177.426 54.3208C179.493 54.3208 181.202 53.6773 182.553 52.4008C183.892 51.1137 184.736 49.3203 185.063 46.9995H192.142C191.477 51.177 189.895 54.3841 187.395 56.5995C184.884 58.8148 181.561 59.9225 177.426 59.9225C174.904 59.9225 172.678 59.5005 170.748 58.646C168.817 57.7915 167.193 56.6417 165.874 55.1647C164.545 53.6984 163.542 51.9471 162.867 49.9217C162.182 47.8962 161.844 45.7019 161.844 43.3388C161.844 40.9757 162.171 38.6759 162.836 36.566C163.5 34.4561 164.492 32.6205 165.821 31.0698C167.15 29.519 168.796 28.2953 170.758 27.4091C172.72 26.523 175.031 26.0693 177.679 26.0693C179.546 26.0693 181.308 26.312 182.985 26.7867C184.662 27.2614 186.15 27.9788 187.458 28.9282C188.766 29.8777 189.832 31.0803 190.655 32.5361C191.477 33.9814 191.984 35.701 192.142 37.6948H185.063L185.074 37.6737Z" fill="#0D3692"/>
<path d="M207.122 59.986H200.044C199.527 59.986 199.105 59.564 199.105 59.0471V33.1587H194.769C194.252 33.1587 193.83 32.7367 193.83 32.2198V26.9451C193.83 26.4281 194.252 26.0062 194.769 26.0062H199.105V24.2761C199.105 22.1451 199.379 20.3622 199.917 18.9908C200.476 17.5772 201.236 16.4695 202.185 15.6888C203.124 14.9081 204.211 14.3912 205.413 14.1275C206.532 13.8848 207.713 13.7688 208.937 13.7688C211.321 13.7688 213.03 13.927 214.159 14.2435C214.57 14.3596 214.845 14.7288 214.845 15.1508V20.6787C214.845 20.9741 214.707 21.2484 214.475 21.4277C214.243 21.607 213.937 21.6598 213.652 21.5859C213.252 21.4699 212.798 21.3855 212.323 21.3328C211.849 21.28 211.268 21.2484 210.604 21.2484C209.834 21.2484 209.201 21.4172 208.673 21.7758C208.177 22.1134 208.072 22.989 208.072 23.6642V26.0167H213.157C213.674 26.0167 214.096 26.4387 214.096 26.9556V32.2303C214.096 32.7473 213.674 33.1692 213.157 33.1692H208.072V59.0576C208.072 59.5745 207.65 59.9965 207.133 59.9965L207.122 59.986Z" fill="#503EB7"/>
</svg>
