<svg viewBox="0 0 190 50" fill="none" xmlns="http://www.w3.org/2000/svg">
<path d="M189.613 16.5562C189.622 17.0744 189.476 17.5835 189.194 18.0187C188.913 18.4538 188.508 18.7953 188.032 18.9996C187.555 19.204 187.029 19.2619 186.519 19.1661C186.01 19.0703 185.541 18.8251 185.171 18.4617C184.801 18.0983 184.548 17.6331 184.444 17.1254C184.34 16.6177 184.389 16.0904 184.585 15.6107C184.781 15.131 185.116 14.7205 185.546 14.4316C185.977 14.1427 186.483 13.9884 187.002 13.9883C187.687 13.9882 188.345 14.2573 188.833 14.7377C189.322 15.2181 189.602 15.8712 189.613 16.5562ZM184.982 16.5562C184.974 16.8245 185.02 17.0917 185.118 17.3418C185.215 17.5919 185.362 17.8197 185.55 18.0116C185.738 18.2034 185.962 18.3553 186.21 18.4583C186.458 18.5612 186.725 18.613 186.993 18.6105C187.257 18.6095 187.517 18.5555 187.76 18.4518C188.002 18.3481 188.221 18.1968 188.404 18.0068C188.586 17.8168 188.729 17.592 188.823 17.3458C188.917 17.0996 188.961 16.837 188.952 16.5736C188.952 16.0472 188.742 15.5424 188.37 15.1702C187.998 14.798 187.493 14.5889 186.967 14.5889C186.44 14.5889 185.936 14.798 185.563 15.1702C185.191 15.5424 184.982 16.0472 184.982 16.5736V16.5562ZM186.566 17.9054H185.975V15.294C186.299 15.2338 186.628 15.2075 186.958 15.2156C187.259 15.1973 187.56 15.2604 187.829 15.3984C187.91 15.4681 187.975 15.5551 188.019 15.6529C188.062 15.7508 188.084 15.8571 188.081 15.9643C188.07 16.1099 188.011 16.2478 187.913 16.3565C187.816 16.4651 187.685 16.5384 187.541 16.5649C187.67 16.6157 187.782 16.7012 187.865 16.8119C187.948 16.9225 187.999 17.0539 188.011 17.1916C188.043 17.4146 188.108 17.6317 188.203 17.8358H187.559C187.462 17.6377 187.395 17.4266 187.359 17.209C187.352 17.1466 187.333 17.0861 187.303 17.0313C187.272 16.9765 187.231 16.9284 187.181 16.8902C187.131 16.8519 187.074 16.8241 187.014 16.8086C186.953 16.7931 186.89 16.7901 186.828 16.7999H186.54L186.566 17.9054ZM186.566 16.4517H186.845C187.176 16.4517 187.446 16.3386 187.446 16.0687C187.446 15.7989 187.272 15.677 186.897 15.677C186.787 15.6629 186.676 15.6629 186.566 15.677V16.4517Z" fill="#1D3922"/>
<path d="M18.0719 8.81641C11.6739 14.1002 8.19202 20.5678 9.26271 26.9397C11.2996 39.4832 29.98 46.8735 50.9671 43.4787C56.6532 42.5635 62.1807 40.8461 67.3842 38.3777C61.1864 43.4874 52.2206 47.4741 41.8967 49.1628C20.9009 52.5838 2.22928 45.1935 0.18367 32.6238C-1.27872 23.7189 6.11159 14.5528 18.0719 8.81641Z" fill="#9ACA3C"/>
<path d="M30.8284 38.3531C28.6824 38.3588 26.5565 37.9399 24.573 37.1206C22.5896 36.3012 20.7878 35.0975 19.2715 33.5788C17.7553 32.0601 16.5545 30.2564 15.7383 28.2717C14.9221 26.2869 14.5066 24.1603 14.5158 22.0143C14.5158 19.516 17.2317 13.6142 25.2922 5.55362L30.8284 0L36.3821 5.55362C44.4426 13.6142 47.1672 19.4812 47.1672 22.0143C47.1764 24.1625 46.7601 26.2913 45.9423 28.2777C45.1244 30.2642 43.9213 32.069 42.4023 33.5881C40.8832 35.1071 39.0784 36.3103 37.0919 37.1281C35.1054 37.9459 32.9767 38.3623 30.8284 38.3531Z" fill="url(#paint0_linear_97_21796)"/>
<path d="M55.0036 16.0765C55.0036 14.3791 56.1526 13.9961 57.2842 13.9961H58.5116C59.826 13.9961 60.444 14.5097 60.8793 15.9198L64.544 27.7757H64.5962L68.2522 15.9198C68.6874 14.5097 69.3054 13.9961 70.6112 13.9961H71.7341C72.857 13.9961 74.0147 14.3791 74.0147 16.0765V31.0922C74.0399 31.3531 74.0103 31.6165 73.9277 31.8653C73.8451 32.1141 73.7114 32.3428 73.5351 32.5369C73.3589 32.731 73.144 32.8861 72.9043 32.9922C72.6646 33.0983 72.4053 33.1531 72.1432 33.1531C71.881 33.1531 71.6218 33.0983 71.3821 32.9922C71.1424 32.8861 70.9275 32.731 70.7512 32.5369C70.575 32.3428 70.4413 32.1141 70.3587 31.8653C70.2761 31.6165 70.2465 31.3531 70.2717 31.0922V19.6368H70.2194L66.2936 31.9104C66.1513 32.2711 65.9037 32.5806 65.5832 32.7987C65.2626 33.0168 64.8838 33.1335 64.4961 33.1335C64.1083 33.1335 63.7296 33.0168 63.409 32.7987C63.0884 32.5806 62.8409 32.2711 62.6986 31.9104L58.7727 19.6368H58.7205V31.0922C58.7457 31.3531 58.716 31.6165 58.6334 31.8653C58.5509 32.1141 58.4172 32.3428 58.2409 32.5369C58.0647 32.731 57.8498 32.8861 57.6101 32.9922C57.3704 33.0983 57.1111 33.1531 56.849 33.1531C56.5868 33.1531 56.3276 33.0983 56.0878 32.9922C55.8481 32.8861 55.6333 32.731 55.457 32.5369C55.2808 32.3428 55.1471 32.1141 55.0645 31.8653C54.9819 31.6165 54.9523 31.3531 54.9775 31.0922L55.0036 16.0765Z" fill="#1D3922"/>
<path d="M88.9937 31.2674C88.9937 32.399 88.4801 33.1389 87.2528 33.1389C86.0254 33.1389 85.5641 32.399 85.5641 31.2674V30.78H85.5118C85.0101 31.5197 84.3319 32.1228 83.5385 32.5347C82.7452 32.9465 81.8617 33.1542 80.968 33.1389C78.7134 33.1389 76.25 32.0073 76.25 28.2121V20.9262C76.25 20.4298 76.4472 19.9538 76.7982 19.6028C77.1491 19.2519 77.6252 19.0547 78.1215 19.0547C78.6179 19.0547 79.0939 19.2519 79.4449 19.6028C79.7959 19.9538 79.993 20.4298 79.993 20.9262V27.4722C79.993 28.9868 80.7416 30.0836 82.352 30.0836C83.1209 30.0676 83.8523 29.7485 84.387 29.1958C84.9217 28.6432 85.2165 27.9016 85.2072 27.1327V20.9262C85.2072 20.4298 85.4043 19.9538 85.7553 19.6028C86.1063 19.2519 86.5823 19.0547 87.0787 19.0547C87.575 19.0547 88.0511 19.2519 88.402 19.6028C88.753 19.9538 88.9502 20.4298 88.9502 20.9262L88.9937 31.2674Z" fill="#1D3922"/>
<path d="M96.4489 19.0547C99.2953 19.0547 102.177 20.1776 102.177 21.9011C102.188 22.1137 102.157 22.3264 102.083 22.5262C102.01 22.726 101.896 22.9086 101.749 23.0628C101.602 23.217 101.426 23.3394 101.23 23.4226C101.034 23.5057 100.823 23.5479 100.61 23.5463C99.1473 23.5463 99.0951 21.8054 96.7361 21.8054C95.4217 21.8054 94.5774 22.1623 94.5774 22.9631C94.5774 23.7639 95.4478 24.0425 96.5795 24.2949L98.1463 24.6605C100.27 25.148 102.812 26.0359 102.812 28.6647C102.812 31.7114 99.8611 33.1215 97.0408 33.1215C93.646 33.1215 90.8256 31.6069 90.8256 29.7615C90.8079 29.5558 90.8345 29.3486 90.9037 29.154C90.9728 28.9594 91.0828 28.7819 91.2264 28.6334C91.3699 28.4849 91.5436 28.3689 91.7357 28.2932C91.9279 28.2176 92.134 28.1839 92.3402 28.1947C93.9593 28.1947 94.0812 30.5014 96.8841 30.5014C98.2246 30.5014 99.0603 29.9182 99.0603 29.1435C99.0603 28.1947 98.2508 28.0467 96.9102 27.7072L94.7079 27.1675C92.523 26.6278 90.8256 25.7312 90.8256 23.2156C90.8256 20.1776 93.8549 19.0547 96.4489 19.0547Z" fill="#1D3922"/>
<path d="M104.812 15.8696C104.845 15.3941 105.057 14.9487 105.405 14.6234C105.753 14.2981 106.212 14.1172 106.688 14.1172C107.165 14.1172 107.624 14.2981 107.972 14.6234C108.32 14.9487 108.532 15.3941 108.564 15.8696V31.2682C108.532 31.7437 108.32 32.189 107.972 32.5143C107.624 32.8396 107.165 33.0206 106.688 33.0206C106.212 33.0206 105.753 32.8396 105.405 32.5143C105.057 32.189 104.845 31.7437 104.812 31.2682V15.8696Z" fill="#1D3922"/>
<path d="M113.122 13.8945C113.507 13.8945 113.884 14.0089 114.205 14.2231C114.526 14.4374 114.776 14.7419 114.923 15.0982C115.071 15.4545 115.109 15.8466 115.034 16.2248C114.959 16.603 114.773 16.9505 114.5 17.2232C114.228 17.4958 113.88 17.6815 113.502 17.7568C113.124 17.832 112.732 17.7934 112.376 17.6458C112.019 17.4982 111.715 17.2483 111.5 16.9277C111.286 16.607 111.172 16.23 111.172 15.8444C111.172 15.5883 111.222 15.3348 111.32 15.0982C111.418 14.8616 111.562 14.6467 111.743 14.4656C111.924 14.2846 112.139 14.1409 112.376 14.043C112.612 13.945 112.866 13.8945 113.122 13.8945ZM111.25 20.928C111.283 20.4525 111.494 20.0071 111.843 19.6818C112.191 19.3565 112.65 19.1756 113.126 19.1756C113.603 19.1756 114.061 19.3565 114.41 19.6818C114.758 20.0071 114.97 20.4525 115.002 20.928V31.2692C114.97 31.7446 114.758 32.19 114.41 32.5153C114.061 32.8406 113.603 33.0215 113.126 33.0215C112.65 33.0215 112.191 32.8406 111.843 32.5153C111.494 32.19 111.283 31.7446 111.25 31.2692V20.928Z" fill="#1D3922"/>
<path d="M165.208 13.8945C165.593 13.8945 165.97 14.0089 166.291 14.2231C166.612 14.4374 166.862 14.7419 167.009 15.0982C167.157 15.4545 167.195 15.8466 167.12 16.2248C167.045 16.603 166.859 16.9505 166.586 17.2232C166.314 17.4958 165.966 17.6815 165.588 17.7568C165.21 17.832 164.818 17.7934 164.462 17.6458C164.105 17.4982 163.801 17.2483 163.586 16.9277C163.372 16.607 163.258 16.23 163.258 15.8444C163.258 15.3273 163.463 14.8313 163.829 14.4656C164.195 14.1 164.691 13.8945 165.208 13.8945ZM163.327 20.928C163.36 20.4525 163.572 20.0071 163.92 19.6818C164.268 19.3565 164.727 19.1756 165.203 19.1756C165.68 19.1756 166.139 19.3565 166.487 19.6818C166.835 20.0071 167.047 20.4525 167.079 20.928V31.2692C167.047 31.7446 166.835 32.19 166.487 32.5153C166.139 32.8406 165.68 33.0215 165.203 33.0215C164.727 33.0215 164.268 32.8406 163.92 32.5153C163.572 32.19 163.36 31.7446 163.327 31.2692V20.928Z" fill="#1D3922"/>
<path d="M117.422 20.9245C117.422 20.4547 117.609 20.0041 117.941 19.6719C118.273 19.3397 118.723 19.1531 119.193 19.1531C119.663 19.1531 120.114 19.3397 120.446 19.6719C120.778 20.0041 120.965 20.4547 120.965 20.9245V21.412H121.017C121.511 20.6703 122.183 20.0652 122.973 19.6529C123.763 19.2405 124.644 19.0342 125.535 19.053C126.304 19.0265 127.063 19.2391 127.707 19.6615C128.351 20.0839 128.848 20.6955 129.13 21.412C129.6 20.674 130.252 20.0694 131.023 19.6563C131.795 19.2431 132.659 19.0354 133.534 19.053C136.146 19.053 138.209 20.2281 138.209 23.5969V31.2657C138.176 31.7412 137.965 32.1865 137.616 32.5119C137.268 32.8372 136.809 33.0181 136.333 33.0181C135.856 33.0181 135.398 32.8372 135.049 32.5119C134.701 32.1865 134.489 31.7412 134.457 31.2657V24.5457C134.457 23.2051 133.865 22.1345 132.403 22.1345C132.036 22.1411 131.674 22.2209 131.338 22.3692C131.003 22.5174 130.7 22.7312 130.448 22.9978C130.196 23.2645 129.999 23.5788 129.87 23.9223C129.741 24.2658 129.682 24.6316 129.696 24.9983V31.2657C129.696 31.7621 129.498 32.2381 129.147 32.5891C128.796 32.9401 128.32 33.1372 127.824 33.1372C127.328 33.1372 126.852 32.9401 126.501 32.5891C126.15 32.2381 125.953 31.7621 125.953 31.2657V24.5457C125.953 23.2051 125.361 22.1345 123.898 22.1345C123.53 22.1388 123.166 22.217 122.828 22.3642C122.491 22.5114 122.186 22.7248 121.932 22.9917C121.678 23.2586 121.48 23.5737 121.35 23.9183C121.22 24.263 121.16 24.6302 121.174 24.9983V31.2657C121.141 31.7412 120.929 32.1865 120.581 32.5119C120.233 32.8372 119.774 33.0181 119.298 33.0181C118.821 33.0181 118.362 32.8372 118.014 32.5119C117.666 32.1865 117.454 31.7412 117.422 31.2657V20.9245Z" fill="#1D3922"/>
<path d="M151.163 15.2761C151.303 14.8586 151.583 14.5027 151.957 14.2693C152.33 14.0359 152.773 13.9394 153.209 13.9965H154.21C154.71 13.9379 155.213 14.0614 155.629 14.3444C156.045 14.6275 156.345 15.051 156.473 15.5372L161.557 29.6737C161.764 30.1925 161.899 30.7373 161.957 31.2928C161.949 31.5432 161.892 31.7896 161.789 32.0178C161.686 32.2461 161.539 32.4518 161.356 32.6232C161.173 32.7946 160.959 32.9283 160.724 33.0167C160.49 33.105 160.24 33.1463 159.99 33.1382C159.588 33.184 159.182 33.093 158.837 32.8798C158.493 32.6666 158.231 32.3437 158.092 31.9631L157.048 28.9077H150.267L149.135 31.9631C149.002 32.342 148.743 32.6635 148.4 32.8729C148.057 33.0823 147.653 33.1668 147.255 33.1121C147.003 33.1345 146.748 33.1029 146.509 33.0195C146.27 32.936 146.051 32.8025 145.867 32.6279C145.684 32.4533 145.539 32.2416 145.444 32.0069C145.349 31.7722 145.304 31.5199 145.314 31.2667C145.371 30.7099 145.508 30.1645 145.723 29.6476L151.163 15.2761ZM153.696 18.5665H153.644L151.163 25.9829H156.09L153.696 18.5665Z" fill="#1D3922"/>
<path d="M181.853 31.3727C181.853 32.5217 181.313 33.1136 180.164 33.1136C179.932 33.1362 179.697 33.1064 179.478 33.0262C179.259 32.9461 179.061 32.8177 178.898 32.6506C178.735 32.4834 178.611 32.2818 178.537 32.0606C178.462 31.8395 178.438 31.6044 178.467 31.3727V30.7808H178.414C178.085 31.5397 177.526 32.176 176.815 32.5993C176.104 33.0227 175.278 33.2117 174.454 33.1397C171.32 33.1397 168.578 30.8591 168.578 26.0106C168.578 22.4155 170.397 19.0468 174.358 19.0468C175.086 19.0079 175.812 19.1632 176.46 19.4966C177.109 19.83 177.657 20.3296 178.049 20.9444H178.092V15.8696C178.125 15.3941 178.337 14.9487 178.685 14.6234C179.033 14.2981 179.492 14.1172 179.968 14.1172C180.445 14.1172 180.904 14.2981 181.252 14.6234C181.6 14.9487 181.812 15.3941 181.844 15.8696L181.853 31.3727ZM175.324 30.2237C177.509 30.2237 178.327 28.2738 178.327 26.1411C178.327 24.2261 177.614 21.9629 175.324 21.989C173.035 22.0151 172.347 24.4002 172.347 26.1411C172.33 28.3434 173.305 30.1627 175.324 30.2237Z" fill="#1D3922"/>
<path d="M81.3095 41.2678C83.1462 41.6856 83.6163 42.7737 83.6163 43.8009C83.6163 45.3938 82.415 46.569 79.9951 46.569C77.4446 46.569 76.313 45.3068 76.313 44.3493C76.3089 44.2358 76.3289 44.1228 76.3718 44.0176C76.4147 43.9125 76.4794 43.8177 76.5618 43.7395C76.6441 43.6613 76.7421 43.6015 76.8493 43.564C76.9565 43.5266 77.0704 43.5124 77.1835 43.5223C78.2716 43.5223 77.9843 45.1066 80.0212 45.1066C81.0658 45.1066 81.6316 44.5321 81.6316 43.9489C81.6316 43.592 81.4662 43.2003 80.7612 43.0349L78.4979 42.4603C76.6786 41.9903 76.3479 40.9805 76.3479 40.0491C76.3479 38.0906 78.1584 37.3594 79.8297 37.3594C81.3966 37.3594 83.242 38.2298 83.242 39.4137C83.222 39.64 83.1143 39.8496 82.9419 39.9976C82.7695 40.1456 82.5461 40.2203 82.3193 40.2058C81.3966 40.2058 81.562 38.9001 79.7079 38.9001C78.7852 38.9001 78.2716 39.3266 78.2716 39.936C78.2716 40.5453 79.0028 40.7455 79.6382 40.8935L81.3095 41.2678Z" fill="#1D3922"/>
<path d="M86.3848 43.5052C86.3719 43.7239 86.4057 43.9427 86.4841 44.1472C86.5624 44.3518 86.6835 44.5372 86.8392 44.6912C86.9949 44.8453 87.1816 44.9644 87.3869 45.0405C87.5923 45.1167 87.8115 45.1482 88.03 45.133C89.3792 45.133 89.3792 44.2625 90.1017 44.2625C90.2906 44.2622 90.4725 44.3342 90.6101 44.4636C90.7476 44.5931 90.8305 44.7703 90.8416 44.9589C90.8416 46.0383 89.1006 46.5345 88.03 46.5345C87.5835 46.5787 87.1327 46.5263 86.7083 46.3808C86.2839 46.2353 85.8958 46.0001 85.5705 45.6912C85.2451 45.3823 84.99 45.007 84.8226 44.5907C84.6552 44.1745 84.5794 43.7271 84.6003 43.2789C84.5566 42.8205 84.6129 42.3581 84.7651 41.9235C84.9173 41.4889 85.162 41.0925 85.4822 40.7616C85.8024 40.4306 86.1905 40.173 86.6198 40.0065C87.0491 39.84 87.5094 39.7685 87.969 39.797C88.3752 39.7674 88.7832 39.8206 89.1683 39.9532C89.5534 40.0858 89.9076 40.2951 90.2095 40.5685C90.5113 40.8419 90.7546 41.1737 90.9246 41.5438C91.0946 41.9139 91.1878 42.3147 91.1985 42.7218C91.1985 43.3311 91.0157 43.4878 90.4238 43.4878L86.3848 43.5052ZM89.5098 42.4781C89.4836 42.0969 89.3152 41.7395 89.0378 41.4767C88.7605 41.2139 88.3946 41.0649 88.0125 41.0592C87.6131 41.0501 87.2248 41.1906 86.9236 41.4531C86.6224 41.7156 86.4303 42.0812 86.3848 42.4781H89.5098Z" fill="#1D3922"/>
<path d="M92.4393 40.6703C92.4393 40.4556 92.5246 40.2497 92.6764 40.0978C92.8282 39.946 93.0341 39.8607 93.2488 39.8607C93.4635 39.8607 93.6694 39.946 93.8213 40.0978C93.9731 40.2497 94.0584 40.4556 94.0584 40.6703V41.358C94.2586 40.6093 94.6677 39.8433 95.5295 39.8433C95.6529 39.8271 95.7784 39.8376 95.8974 39.8741C96.0165 39.9105 96.1263 39.972 96.2195 40.0545C96.3128 40.137 96.3872 40.2386 96.4379 40.3523C96.4885 40.466 96.5142 40.5893 96.5131 40.7138C96.5223 40.8304 96.506 40.9477 96.4655 41.0575C96.425 41.1672 96.3612 41.2669 96.2785 41.3497C96.1957 41.4324 96.0961 41.4962 95.9863 41.5367C95.8765 41.5772 95.7593 41.5934 95.6426 41.5843H95.3206C94.6068 41.5843 94.2151 42.0892 94.2151 43.569V45.6494C94.2151 45.8872 94.1206 46.1152 93.9524 46.2834C93.7843 46.4515 93.5563 46.546 93.3185 46.546C93.0807 46.546 92.8526 46.4515 92.6845 46.2834C92.5163 46.1152 92.4219 45.8872 92.4219 45.6494L92.4393 40.6703Z" fill="#1D3922"/>
<path d="M96.8184 41.2005C96.7612 41.0552 96.7232 40.903 96.7053 40.7479C96.6969 40.6285 96.7132 40.5087 96.7532 40.396C96.7932 40.2833 96.8559 40.18 96.9376 40.0926C97.0193 40.0052 97.1181 39.9355 97.2279 39.888C97.3377 39.8405 97.4561 39.8162 97.5757 39.8164C97.787 39.8144 97.9917 39.8892 98.1519 40.0269C98.312 40.1646 98.4166 40.3559 98.4462 40.5651L99.6388 44.5953L100.84 40.5651C100.87 40.3559 100.974 40.1646 101.134 40.0269C101.294 39.8892 101.499 39.8144 101.71 39.8164C101.83 39.8162 101.949 39.8405 102.058 39.888C102.168 39.9355 102.267 40.0052 102.349 40.0926C102.43 40.18 102.493 40.2833 102.533 40.396C102.573 40.5087 102.589 40.6285 102.581 40.7479C102.563 40.903 102.525 41.0552 102.468 41.2005L100.857 45.8924C100.683 46.3711 100.57 46.5278 99.6736 46.5278C98.777 46.5278 98.6812 46.3711 98.5071 45.8924L96.8184 41.2005Z" fill="#1D3922"/>
<path d="M104.431 37.3594C104.616 37.3594 104.796 37.414 104.949 37.5163C105.102 37.6187 105.221 37.7642 105.292 37.9343C105.362 38.1045 105.381 38.2918 105.345 38.4725C105.309 38.6532 105.22 38.8191 105.09 38.9494C104.96 39.0796 104.794 39.1684 104.613 39.2043C104.432 39.2402 104.245 39.2218 104.075 39.1513C103.905 39.0808 103.759 38.9614 103.657 38.8082C103.555 38.6551 103.5 38.475 103.5 38.2908C103.5 38.0438 103.598 37.8069 103.773 37.6322C103.947 37.4575 104.184 37.3594 104.431 37.3594ZM103.561 40.7107C103.561 40.4729 103.655 40.2449 103.824 40.0767C103.992 39.9086 104.22 39.8141 104.458 39.8141C104.695 39.8141 104.923 39.9086 105.092 40.0767C105.26 40.2449 105.354 40.4729 105.354 40.7107V45.6376C105.354 45.8754 105.26 46.1034 105.092 46.2716C104.923 46.4397 104.695 46.5342 104.458 46.5342C104.22 46.5342 103.992 46.4397 103.824 46.2716C103.655 46.1034 103.561 45.8754 103.561 45.6376V40.7107Z" fill="#1D3922"/>
<path d="M106.844 40.7115C106.844 40.1631 107.087 39.841 107.645 39.841C108.202 39.841 108.454 40.1892 108.454 40.7115V40.9465C108.695 40.5966 109.017 40.3106 109.393 40.1134C109.77 39.9162 110.188 39.8137 110.613 39.8149C110.923 39.7908 111.235 39.8359 111.527 39.9469C111.818 40.0579 112.08 40.2321 112.296 40.4569C112.512 40.6817 112.675 40.9515 112.774 41.2469C112.872 41.5423 112.904 41.8559 112.867 42.1652V45.6471C112.867 45.8837 112.773 46.1107 112.606 46.278C112.439 46.4453 112.212 46.5393 111.975 46.5393C111.739 46.5393 111.512 46.4453 111.344 46.278C111.177 46.1107 111.083 45.8837 111.083 45.6471V42.5134C111.105 42.3552 111.092 42.1941 111.044 42.0417C110.997 41.8893 110.916 41.7493 110.808 41.6319C110.699 41.5145 110.566 41.4226 110.418 41.3628C110.27 41.3029 110.111 41.2767 109.951 41.286C109.587 41.2951 109.242 41.4474 108.989 41.7097C108.736 41.972 108.597 42.3233 108.602 42.6875V45.6384C108.602 45.8692 108.51 46.0906 108.347 46.2539C108.184 46.4171 107.962 46.5088 107.732 46.5088C107.501 46.5088 107.279 46.4171 107.116 46.2539C106.953 46.0906 106.861 45.8692 106.861 45.6384L106.844 40.7115Z" fill="#1D3922"/>
<path d="M120.362 45.8897C120.404 46.3153 120.35 46.7448 120.204 47.1469C120.059 47.5489 119.825 47.9134 119.521 48.2137C119.216 48.514 118.848 48.7425 118.444 48.8826C118.04 49.0227 117.61 49.0708 117.185 49.0234C115.827 49.0234 114.495 48.4141 114.495 47.5523C114.488 47.4486 114.503 47.3445 114.538 47.2468C114.574 47.1491 114.629 47.0599 114.702 46.9852C114.774 46.9105 114.861 46.8518 114.958 46.813C115.054 46.7742 115.158 46.7562 115.261 46.7602C116.01 46.7602 116.132 47.6829 117.159 47.6829C118.186 47.6829 118.691 47.1345 118.691 45.7243V45.3587C118.488 45.629 118.226 45.8484 117.923 45.9994C117.621 46.1505 117.288 46.2292 116.95 46.2292C116.557 46.2557 116.162 46.1956 115.794 46.0532C115.426 45.9107 115.094 45.6894 114.821 45.4048C114.548 45.1201 114.341 44.7791 114.214 44.4057C114.087 44.0323 114.043 43.6355 114.086 43.2435C114.086 40.928 115.383 39.8399 116.881 39.8399C117.257 39.8207 117.631 39.9076 117.96 40.0907C118.29 40.2739 118.561 40.5459 118.743 40.8758V40.6669C118.724 40.5535 118.731 40.4373 118.764 40.3272C118.797 40.217 118.855 40.1159 118.933 40.0318C119.011 39.9476 119.108 39.8826 119.216 39.8418C119.323 39.8009 119.438 39.7854 119.553 39.7964C120.11 39.7964 120.362 40.0924 120.362 40.6669V45.8897ZM117.246 44.9235C118.038 44.9235 118.656 44.3925 118.656 43.1216C118.656 41.8507 118.16 41.2501 117.333 41.2501C116.184 41.2501 115.827 42.1206 115.827 43.1912C115.827 43.966 116.228 44.88 117.246 44.88V44.9235Z" fill="#1D3922"/>
<path d="M125.32 38.4151C125.32 38.1496 125.426 37.895 125.614 37.7073C125.801 37.5195 126.056 37.4141 126.321 37.4141C126.587 37.4141 126.841 37.5195 127.029 37.7073C127.217 37.895 127.322 38.1496 127.322 38.4151V40.9047H130.97V38.4151C130.97 38.1496 131.075 37.895 131.263 37.7073C131.451 37.5195 131.705 37.4141 131.971 37.4141C132.236 37.4141 132.491 37.5195 132.679 37.7073C132.866 37.895 132.972 38.1496 132.972 38.4151V45.5269C132.972 45.7924 132.866 46.047 132.679 46.2347C132.491 46.4225 132.236 46.5279 131.971 46.5279C131.705 46.5279 131.451 46.4225 131.263 46.2347C131.075 46.047 130.97 45.7924 130.97 45.5269V42.5934H127.322V45.5269C127.322 45.7924 127.217 46.047 127.029 46.2347C126.841 46.4225 126.587 46.5279 126.321 46.5279C126.056 46.5279 125.801 46.4225 125.614 46.2347C125.426 46.047 125.32 45.7924 125.32 45.5269V38.4151Z" fill="#1D3922"/>
<path d="M140.665 45.6373C140.665 46.1683 140.421 46.5078 139.855 46.5078C139.289 46.5078 139.054 46.1509 139.054 45.6373V45.4023C138.818 45.7556 138.496 46.0437 138.119 46.2399C137.741 46.4362 137.321 46.5343 136.896 46.5252C136.585 46.5509 136.272 46.5069 135.98 46.3965C135.688 46.286 135.425 46.1119 135.209 45.8867C134.993 45.6616 134.83 45.3911 134.732 45.0949C134.633 44.7988 134.603 44.4845 134.641 44.1749V40.693C134.641 40.4564 134.735 40.2294 134.902 40.0621C135.07 39.8948 135.297 39.8008 135.533 39.8008C135.77 39.8008 135.997 39.8948 136.164 40.0621C136.332 40.2294 136.426 40.4564 136.426 40.693V43.8093C136.402 43.9681 136.414 44.1302 136.461 44.2837C136.508 44.4372 136.589 44.5783 136.697 44.6968C136.806 44.8152 136.939 44.9079 137.088 44.9682C137.237 45.0285 137.397 45.0549 137.557 45.0454C137.924 45.0362 138.272 44.8831 138.526 44.6191C138.78 44.3552 138.92 44.0016 138.915 43.6352V40.7104C138.915 40.4738 139.009 40.2468 139.176 40.0795C139.344 39.9122 139.571 39.8182 139.807 39.8182C140.044 39.8182 140.271 39.9122 140.438 40.0795C140.606 40.2468 140.7 40.4738 140.7 40.7104L140.665 45.6373Z" fill="#1D3922"/>
<path d="M142.093 40.712C142.058 40.5829 142.053 40.4475 142.079 40.3162C142.105 40.1849 142.16 40.0614 142.241 39.9551C142.323 39.8488 142.427 39.7627 142.547 39.7034C142.667 39.6441 142.799 39.6133 142.933 39.6133C143.067 39.6133 143.199 39.6441 143.319 39.7034C143.439 39.7627 143.543 39.8488 143.625 39.9551C143.706 40.0614 143.761 40.1849 143.787 40.3162C143.813 40.4475 143.808 40.5829 143.773 40.712V40.9471C144.004 40.5918 144.322 40.3013 144.697 40.1033C145.072 39.9053 145.491 39.8062 145.914 39.8154C146.286 39.8027 146.652 39.9045 146.963 40.1069C147.275 40.3093 147.516 40.6026 147.655 40.9471C147.876 40.5922 148.186 40.3012 148.554 40.1027C148.922 39.9043 149.335 39.8053 149.753 39.8154C150.049 39.777 150.35 39.8061 150.633 39.9006C150.917 39.9951 151.175 40.1526 151.388 40.3612C151.602 40.5698 151.766 40.8241 151.867 41.105C151.968 41.3858 152.004 41.686 151.973 41.9829V45.6389C151.973 45.8755 151.879 46.1025 151.712 46.2698C151.544 46.4371 151.317 46.5312 151.081 46.5312C150.844 46.5312 150.617 46.4371 150.45 46.2698C150.282 46.1025 150.188 45.8755 150.188 45.6389V42.4095C150.188 41.7827 149.91 41.2691 149.213 41.2691C149.037 41.2713 148.862 41.3089 148.7 41.3797C148.538 41.4505 148.392 41.553 148.27 41.6812C148.149 41.8094 148.054 41.9607 147.991 42.1261C147.929 42.2916 147.901 42.4678 147.908 42.6445V45.6215C147.908 45.8524 147.816 46.0738 147.653 46.237C147.49 46.4003 147.268 46.492 147.037 46.492C146.806 46.492 146.585 46.4003 146.422 46.237C146.258 46.0738 146.167 45.8524 146.167 45.6215V42.4095C146.167 41.7827 145.888 41.2691 145.192 41.2691C145.015 41.2713 144.841 41.3089 144.68 41.3798C144.518 41.4507 144.373 41.5533 144.252 41.6817C144.131 41.81 144.037 41.9614 143.975 42.1268C143.914 42.2922 143.887 42.4683 143.895 42.6445V45.6215C143.895 45.8581 143.801 46.0851 143.634 46.2524C143.466 46.4197 143.239 46.5137 143.003 46.5137C142.766 46.5137 142.539 46.4197 142.372 46.2524C142.204 46.0851 142.11 45.8581 142.11 45.6215L142.093 40.712Z" fill="#1D3922"/>
<path d="M159.34 44.6475C159.362 45.0523 159.421 45.4543 159.514 45.8488C159.506 45.9469 159.479 46.0425 159.434 46.1299C159.389 46.2174 159.327 46.295 159.252 46.3583C159.176 46.4215 159.089 46.469 158.995 46.4981C158.901 46.5272 158.802 46.5373 158.705 46.5278C158.565 46.5395 158.425 46.5208 158.293 46.4731C158.162 46.4253 158.042 46.3495 157.943 46.251C157.844 46.1525 157.767 46.0336 157.718 45.9026C157.669 45.7715 157.649 45.6314 157.66 45.4919C157.355 45.8356 156.977 46.1069 156.554 46.2861C156.131 46.4653 155.673 46.5478 155.214 46.5278C154.962 46.543 154.709 46.5078 154.471 46.4242C154.233 46.3405 154.013 46.2102 153.826 46.0407C153.639 45.8713 153.487 45.6662 153.38 45.4374C153.273 45.2086 153.213 44.9608 153.203 44.7085C153.203 43.2287 154.326 42.8108 155.693 42.6541L156.781 42.5323C157.207 42.4801 157.547 42.3843 157.547 41.8707C157.547 41.3571 157.024 41.1395 156.424 41.1395C155.101 41.1395 155.066 42.1145 154.361 42.1145C154.265 42.1216 154.17 42.1092 154.079 42.078C153.989 42.0469 153.905 41.9977 153.834 41.9333C153.764 41.869 153.707 41.7909 153.667 41.7038C153.627 41.6167 153.606 41.5225 153.604 41.4268C153.604 40.7217 154.605 39.8164 156.441 39.8164C158.182 39.8164 159.34 40.3648 159.34 41.6531V44.6475ZM157.547 43.3592C157.318 43.5145 157.055 43.6129 156.781 43.6465L156.128 43.7422C155.379 43.8554 154.979 44.0817 154.979 44.6127C154.979 45.0131 155.362 45.3439 155.971 45.3439C156.16 45.3656 156.351 45.3492 156.533 45.2957C156.715 45.2423 156.884 45.1528 157.031 45.0327C157.178 44.9126 157.299 44.7642 157.388 44.5964C157.477 44.4286 157.531 44.2447 157.547 44.0556V43.3592Z" fill="#1D3922"/>
<path d="M160.885 40.7115C160.885 40.1631 161.129 39.841 161.686 39.841C162.243 39.841 162.487 40.1892 162.487 40.7115V40.9465C162.729 40.5953 163.052 40.3086 163.43 40.1114C163.808 39.9141 164.228 39.8123 164.655 39.8149C164.965 39.7908 165.277 39.8359 165.568 39.9469C165.859 40.0579 166.122 40.2321 166.338 40.4569C166.553 40.6817 166.716 40.9515 166.815 41.2469C166.914 41.5423 166.946 41.8559 166.909 42.1652V45.6471C166.909 45.8837 166.815 46.1107 166.648 46.278C166.481 46.4453 166.254 46.5393 166.017 46.5393C165.78 46.5393 165.553 46.4453 165.386 46.278C165.219 46.1107 165.125 45.8837 165.125 45.6471V42.5134C165.147 42.3552 165.134 42.1941 165.086 42.0417C165.038 41.8893 164.958 41.7493 164.849 41.6319C164.741 41.5145 164.608 41.4226 164.46 41.3628C164.312 41.3029 164.152 41.2767 163.993 41.286C163.629 41.2951 163.283 41.4474 163.031 41.7097C162.778 41.972 162.639 42.3233 162.644 42.6875V45.6384C162.644 45.875 162.55 46.1019 162.383 46.2693C162.215 46.4366 161.988 46.5306 161.752 46.5306C161.515 46.5306 161.288 46.4366 161.121 46.2693C160.953 46.1019 160.859 45.875 160.859 45.6384L160.885 40.7115Z" fill="#1D3922"/>
<path d="M169.345 37.3594C169.53 37.3594 169.71 37.414 169.863 37.5163C170.016 37.6187 170.135 37.7642 170.206 37.9343C170.276 38.1045 170.295 38.2918 170.259 38.4725C170.223 38.6532 170.134 38.8191 170.004 38.9494C169.874 39.0796 169.708 39.1684 169.527 39.2043C169.347 39.2402 169.159 39.2218 168.989 39.1513C168.819 39.0808 168.673 38.9614 168.571 38.8082C168.469 38.6551 168.414 38.475 168.414 38.2908C168.414 38.0438 168.512 37.8069 168.687 37.6322C168.862 37.4575 169.098 37.3594 169.345 37.3594ZM168.475 40.7107C168.475 40.4741 168.569 40.2471 168.736 40.0798C168.904 39.9125 169.131 39.8185 169.367 39.8185C169.604 39.8185 169.831 39.9125 169.998 40.0798C170.165 40.2471 170.259 40.4741 170.259 40.7107V45.6376C170.259 45.8742 170.165 46.1012 169.998 46.2685C169.831 46.4358 169.604 46.5298 169.367 46.5298C169.131 46.5298 168.904 46.4358 168.736 46.2685C168.569 46.1012 168.475 45.8742 168.475 45.6376V40.7107Z" fill="#1D3922"/>
<path d="M172.205 41.1475H171.9C171.404 41.1475 171.195 40.956 171.195 40.5643C171.195 40.1726 171.404 39.9724 171.9 39.9724H172.205V38.9278C172.205 38.69 172.3 38.462 172.468 38.2939C172.636 38.1257 172.864 38.0312 173.102 38.0312C173.339 38.0312 173.567 38.1257 173.736 38.2939C173.904 38.462 173.998 38.69 173.998 38.9278V39.9724H174.529C175.06 39.9724 175.339 40.1291 175.339 40.5643C175.339 40.9996 175.06 41.1475 174.529 41.1475H173.998V44.7165C173.998 44.9863 174.146 45.1343 174.46 45.1343H174.721C174.803 45.125 174.886 45.134 174.964 45.1606C175.042 45.1873 175.113 45.2309 175.172 45.2883C175.231 45.3458 175.277 45.4157 175.306 45.4929C175.334 45.5701 175.346 45.6528 175.339 45.7349C175.339 46.2485 174.904 46.5271 174.042 46.5271C172.745 46.5271 172.205 45.9961 172.205 44.9341V41.1475Z" fill="#1D3922"/>
<path d="M178.652 44.6652L179.74 40.6088C179.862 40.1561 180.115 39.8167 180.611 39.8167C180.84 39.8023 181.066 39.8794 181.239 40.0311C181.412 40.1828 181.518 40.3967 181.534 40.6262C181.517 40.8201 181.473 41.0107 181.403 41.192L179.331 47.0416C178.905 48.2603 178.461 48.9044 177.286 48.9044C176.502 48.9044 176.163 48.504 176.163 48.0339C176.162 47.9304 176.183 47.8279 176.225 47.7334C176.267 47.6389 176.329 47.5545 176.407 47.486C176.485 47.4175 176.576 47.3664 176.675 47.3363C176.774 47.3062 176.878 47.2977 176.981 47.3114H177.172C177.399 47.3114 177.66 47.3114 177.79 46.7543L175.928 41.5402C175.813 41.2627 175.743 40.969 175.719 40.6697C175.719 40.4389 175.81 40.2175 175.974 40.0542C176.137 39.891 176.358 39.7993 176.589 39.7993C176.798 39.7838 177.005 39.8439 177.173 39.9686C177.34 40.0933 177.458 40.2742 177.503 40.4782L178.652 44.6652Z" fill="#1D3922"/>
<defs>
<linearGradient id="paint0_linear_97_21796" x1="34.8849" y1="37.8569" x2="25.153" y2="1.52333" gradientUnits="userSpaceOnUse">
<stop/>
<stop offset="0.04" stop-color="#1B240B"/>
<stop offset="0.08" stop-color="#394B16"/>
<stop offset="0.13" stop-color="#536D20"/>
<stop offset="0.19" stop-color="#698A29"/>
<stop offset="0.25" stop-color="#7BA230"/>
<stop offset="0.32" stop-color="#89B435"/>
<stop offset="0.4" stop-color="#93C139"/>
<stop offset="0.51" stop-color="#98C83B"/>
<stop offset="0.75" stop-color="#9ACA3C"/>
</linearGradient>
</defs>
</svg>
